PathFileType	4	(X/Y/Z)	E:\Qualisys_Data\Carbon_Farble_Plate\Data\Amateur_Runner\S1\T2\S1T2V21_c3d.trc
DataRate	CameraRate	NumFrames	NumMarkers	Units	OrigDataRate	OrigDataStartFrame	OrigNumFrames
200.000000	200.000000	5	39	mm	200.000000	0	284
Frame#	Time	LSHO			RSHO			LICST			RICST			LASIS			LHEEL			RASIS			LTROC			RTROC			SACR			LTH1			LSK4			LTH2			LTH3			RHM5			LSK2			LTH4			RTH1			LTOE			RTH2			RTH3			RTH4			LLEP			RLEP			LSK1			LSK3			RSK1			LHM5			RSK2			LFT1			RSK3			RSK4			LLME			RLME			RTOE			RHEEL			RFT1			RFT2			LFT2			
		X1	Y1	Z1	X2	Y2	Z2	X3	Y3	Z3	X4	Y4	Z4	X5	Y5	Z5	X6	Y6	Z6	X7	Y7	Z7	X8	Y8	Z8	X9	Y9	Z9	X10	Y10	Z10	X11	Y11	Z11	X12	Y12	Z12	X13	Y13	Z13	X14	Y14	Z14	X15	Y15	Z15	X16	Y16	Z16	X17	Y17	Z17	X18	Y18	Z18	X19	Y19	Z19	X20	Y20	Z20	X21	Y21	Z21	X22	Y22	Z22	X23	Y23	Z23	X24	Y24	Z24	X25	Y25	Z25	X26	Y26	Z26	X27	Y27	Z27	X28	Y28	Z28	X29	Y29	Z29	X30	Y30	Z30	X31	Y31	Z31	X32	Y32	Z32	X33	Y33	Z33	X34	Y34	Z34	X35	Y35	Z35	X36	Y36	Z36	X37	Y37	Z37	X38	Y38	Z38	X39	Y39	Z39	

1	0	-2625.8642578125	1553.266357421875	-545.303466796875	-2723.552978515625	1539.5107421875	-242.4693298339844	-2643.58935546875	1068.635009765625	-534.8697509765625	-2661.78564453125	1088.908081054688	-240.5960540771484	-2603.643310546875	1025.3759765625	-509.2333068847656	-3244.593505859375	392.1028747558594	-423.8327026367188	-2621.939453125	1042.734741210938	-246.0662078857422	-2732.979736328125	963.9181518554688	-553.3208618164062	-2717.317626953125	948.7338256835938	-216.8519439697266	-2771.171630859375	1097.209838867188	-392.07373046875	-2668.94384765625	780.595703125	-522.7037963867188	-3121.494384765625	459.4574890136719	-461.1890563964844	-2743.39990234375	803.4196166992188	-551.2322387695312	-2706.306640625	684.642333984375	-506.4222717285156	-2258.53369140625	166.8079986572266	-233.8230133056641	-3036.3720703125	503.8729248046875	-500.22314453125	-2783.6328125	713.2943725585938	-527.572265625	-2545.968017578125	874.0557861328125	-234.6816101074219	-3169.37646484375	148.3260955810547	-412.5699462890625	-2611.653076171875	835.25927734375	-209.0731506347656	-2496.746826171875	783.975830078125	-238.4642639160156	-2566.880615234375	746.6040649414062	-225.6668243408203	-2824.66455078125	561.9520874023438	-494.1961364746094	-2474.18359375	605.5035400390625	-258.1142883300781	-2996.610595703125	430.7559509277344	-491.7621154785156	-3089.61083984375	389.5260925292969	-484.8651428222656	-2438.118408203125	417.9947509765625	-233.2454833984375	-3227.158203125	194.7508544921875	-478.4412841796875	-2515.778564453125	400.5060424804688	-253.4851837158203	-3266.314453125	375.4815673828125	-394.6893615722656	-2412.47021484375	321.5090026855469	-246.4825592041016	-2486.6904296875	305.4744567871094	-275.6846618652344	-3203.949462890625	351.3191223144531	-474.6285705566406	-2402.8515625	181.1094970703125	-251.6987457275391	-2209.456298828125	214.2704467773438	-306.30029296875	-2447.393310546875	120.3996276855469	-299.466796875	-2421.435302734375	98.83866119384766	-331.228759765625	-2429.9638671875	93.11055755615234	-275.1924438476562	-3274.526611328125	373.3220520019531	-447.95947265625
2	0.005	-2604.58203125	1553.353759765625	-544.4750366210938	-2701.697021484375	1538.993530273438	-241.4229125976562	-2622.405029296875	1068.857543945312	-534.9872436523438	-2639.451904296875	1088.45068359375	-240.2648162841797	-2581.834228515625	1026.097778320312	-509.0088806152344	-3221.928466796875	402.9815063476562	-423.1131896972656	-2600.053955078125	1042.07470703125	-246.2914428710938	-2710.752685546875	963.1912231445312	-553.5419311523438	-2694.768310546875	947.4017333984376	-216.4517211914062	-2749.560791015625	1096.070922851562	-391.583740234375	-2643.786865234375	779.7860717773438	-521.3502197265625	-3097.65625	465.6542053222656	-461.2131958007812	-2718.175537109375	800.9895629882812	-550.695556640625	-2680.347412109375	683.3348388671875	-505.2261962890625	-2229.729248046875	168.0252838134766	-234.7311096191406	-3010.78173828125	508.1939697265625	-499.7304077148438	-2757.680419921875	711.2393188476562	-527.591552734375	-2524.977783203125	868.652587890625	-234.9285583496094	-3155.03955078125	156.8396759033203	-412.3504028320312	-2591.434326171875	831.470947265625	-207.6903533935547	-2478.947509765625	777.451416015625	-239.9694671630859	-2549.54150390625	741.8368530273438	-223.4822540283203	-2797.812255859375	559.53564453125	-494.2423400878906	-2457.01953125	600.7648315429688	-259.0005798339844	-2974.4111328125	434.1055297851562	-492.0733337402344	-3067.888916015625	395.8016052246094	-484.4679260253906	-2416.91455078125	415.8615417480469	-233.1082305908203	-3211.009765625	205.4228515625	-478.0141906738281	-2494.490478515625	396.449951171875	-253.9780731201172	-3244.3935546875	387.9307250976562	-394.314453125	-2388.804443359375	319.8145141601562	-246.3191070556641	-2462.660888671875	302.5492248535156	-275.9809265136719	-3183.5244140625	361.3533020019531	-474.5039367675781	-2376.945556640625	179.4604644775391	-251.6943969726562	-2183.499267578125	217.0721740722656	-307.5304260253906	-2418.841064453125	115.9638977050781	-298.1676330566406	-2393.562744140625	97.44947814941406	-330.7930603027344	-2400.800537109375	91.03972625732422	-274.2966003417969	-3253.39453125	385.9183349609375	-447.4917602539062
3	0.01	-2582.976806640625	1553.41064453125	-543.7102661132812	-2680.730712890625	1538.380249023438	-240.8264617919922	-2601.07958984375	1068.000732421875	-534.7799072265625	-2618.342529296875	1087.707641601562	-239.7890472412109	-2560.010986328125	1026.167724609375	-508.6136169433594	-3198.905029296875	414.3885803222656	-424.1784973144531	-2577.081298828125	1042.453491210938	-245.664306640625	-2688.0458984375	961.6768798828124	-553.7273559570312	-2673.630126953125	946.3789672851562	-216.6479949951172	-2728.281494140625	1095.017578125	-391.47265625	-2618.481201171875	778.833984375	-520.122314453125	-3073.788818359375	473.3312683105469	-461.2994079589844	-2693.14306640625	799.6328125	-550.6468505859375	-2654.040771484375	681.8751831054688	-504.6689758300781	-2204.2890625	168.880859375	-235.4679870605469	-2984.997314453125	511.9826049804688	-499.7406616210938	-2731.207763671875	708.7704467773438	-527.3831787109375	-2503.81884765625	862.4442138671875	-234.8722381591797	-3138.832763671875	167.6216125488281	-412.4703369140625	-2571.12939453125	826.884765625	-206.1886444091797	-2460.880615234375	770.5667724609375	-240.1691284179688	-2531.535888671875	736.5222778320312	-221.6989593505859	-2770.86181640625	556.6997680664062	-494.3075561523438	-2440.01806640625	596.4412841796875	-259.5888671875	-2950.2998046875	435.6049194335938	-491.3410034179688	-3045.324462890625	400.1808166503906	-483.7091369628906	-2395.409423828125	414.009765625	-233.4769897460938	-3193.047607421875	216.3362884521484	-476.9265747070312	-2473.078125	393.1222229003906	-254.6778869628906	-3221.6728515625	399.6358337402344	-393.8125610351562	-2366.583251953125	318.1650085449219	-246.9825439453125	-2439.35693359375	299.2814331054688	-275.4941101074219	-3162.263916015625	371.1859130859375	-474.5440368652344	-2351.183837890625	178.9713439941406	-251.3811340332031	-2158.870361328125	218.8889465332031	-309.0269165039062	-2391.3125	114.3340454101562	-296.3213806152344	-2367.7744140625	95.74099731445312	-330.2486877441406	-2374.386474609375	89.42774963378906	-273.8068542480469	-3231.294189453125	398.2107849121094	-447.6038513183594
4	0.015	-2561.034423828125	1552.558349609375	-542.5006713867188	-2658.37255859375	1537.286499023438	-240.0374908447266	-2579.7734375	1067.671997070312	-534.7052612304688	-2596.685546875	1087.067626953125	-239.4298095703125	-2538.596923828125	1026.055541992188	-509.1384887695312	-3174.665283203125	424.4979553222656	-424.0921936035156	-2555.303466796875	1042.210327148438	-246.4839172363281	-2664.93408203125	959.8590087890624	-553.4137573242188	-2652.14013671875	944.157470703125	-217.2196044921875	-2707.05078125	1093.345825195312	-391.0045776367188	-2593.021728515625	777.7832641601562	-518.8043823242188	-3049.85009765625	481.7030029296875	-461.767333984375	-2667.869140625	797.1255493164062	-550.4426879882812	-2627.8203125	680.427490234375	-504.733642578125	-2180.9091796875	169.9799346923828	-236.6905059814453	-2958.737548828125	515.279541015625	-499.7106323242188	-2705.15185546875	705.8230590820312	-527.5482788085938	-2486.1533203125	856.9196166992188	-236.7541961669922	-3122.1767578125	176.3056335449219	-412.2316589355469	-2552.171630859375	823.4949340820312	-205.44873046875	-2443.32470703125	764.0518188476562	-240.9273681640625	-2514.805419921875	731.2236938476562	-220.6058197021484	-2743.222412109375	553.8349609375	-493.9013061523438	-2421.55859375	591.8493041992188	-259.7951354980469	-2926.73779296875	438.1652221679688	-491.25244140625	-3022.5791015625	405.7654724121094	-483.6883544921875	-2374.697509765625	411.5753173828125	-234.3167877197266	-3177.0126953125	226.4141998291016	-477.3451843261719	-2452.7724609375	391.0868225097656	-255.0738372802734	-3198.45849609375	411.4962463378906	-393.5696411132812	-2344.024658203125	316.7498168945312	-247.3148040771484	-2417.169677734375	296.5422058105469	-275.5729370117188	-3140.784423828125	381.6163940429688	-475.11376953125	-2327.22900390625	177.5177612304688	-251.8367919921875	-2135.58740234375	219.2330017089844	-309.9825439453125	-2368.01708984375	113.4188766479492	-295.5233764648438	-2343.18505859375	93.84068298339844	-329.5932006835938	-2349.6005859375	87.44662475585938	-272.9425048828125	-3208.20361328125	409.4174194335938	-446.93017578125
5	0.02	-2539.017578125	1551.34423828125	-540.9641723632812	-2636.200927734375	1536.031982421875	-238.4867553710938	-2559.078369140625	1066.746215820312	-535.1504516601562	-2575.495849609375	1085.72900390625	-238.9045715332031	-2516.775390625	1025.236328125	-509.2334594726562	-3150.302001953125	435.0228881835938	-424.251953125	-2532.995849609375	1041.270629882812	-246.1606292724609	-2642.78515625	957.9938354492188	-553.95703125	-2630.331787109375	942.2625122070312	-217.1828765869141	-2685.5107421875	1091.674926757812	-390.3583679199219	-2567.630859375	776.273681640625	-518.73876953125	-3023.556396484375	487.2262573242188	-461.6228637695312	-2642.394287109375	794.4343872070312	-550.5130615234375	-2601.23681640625	678.3817138671875	-504.0315551757812	-2158.410400390625	169.4223175048828	-237.4781036376953	-2932.03857421875	518.7352905273438	-500.0302734375	-2678.392333984375	702.7841796875	-527.83984375	-2466.122314453125	850.8652954101562	-236.2310180664062	-3104.56201171875	185.1364898681641	-412.0614013671875	-2532.796142578125	819.4973754882812	-204.8351745605469	-2424.90087890625	757.4795532226562	-241.8688049316406	-2497.929931640625	726.4360961914062	-219.0493011474609	-2715.388671875	550.8758544921875	-493.9119567871094	-2403.602294921875	588.5055541992188	-260.1204833984375	-2902.86572265625	441.3902587890625	-491.1443481445312	-2998.9013671875	410.8841857910156	-483.3428955078125	-2353.503173828125	409.7942810058594	-234.6874389648438	-3157.697998046875	237.5189514160156	-477.0345153808594	-2431.609619140625	387.6672973632812	-255.0583190917969	-3173.946044921875	422.5950927734375	-393.3724975585938	-2323.244140625	314.9275207519531	-248.6206359863281	-2395.569091796875	293.6651611328125	-275.1053161621094	-3117.72216796875	390.5161743164062	-474.7113342285156	-2304.830810546875	176.1071929931641	-252.6257781982422	-2114.1162109375	218.7015075683594	-311.6570434570312	-2346.619140625	111.2439422607422	-294.72412109375	-2320.573486328125	91.25891876220705	-329.7650146484375	-2327.054931640625	85.62368774414062	-273.3944091796875	-3183.82958984375	421.04052734375	-446.7009582519531
